HIERARCHY
ROOT Pelvis
{
	OFFSET 0.000000 0.000000 0.000000
	CHANNELS 6 Xposition Yposition Zposition Xrotation Yrotation Zrotation
	JOINT LeftUpLeg_virtual
	{
		OFFSET 0.000000 0.000000 0.000000
		CHANNELS 3 Xrotation Yrotation Zrotation
		JOINT LeftUpLeg
		{
			OFFSET 18.735201 -5.666702 -4.541200
			CHANNELS 3 Xrotation Yrotation Zrotation
			JOINT LeftLeg
			{
				OFFSET -0.021200 -31.938179 0.493100
				CHANNELS 3 Xrotation Yrotation Zrotation
				JOINT LeftFoot
				{
					OFFSET 0.021200 -31.938179 -4.336299
					CHANNELS 3 Xrotation Yrotation Zrotation
					JOINT LeftToeBase
					{
						OFFSET 0.943001 -26.722000 15.023500
						CHANNELS 3 Xrotation Yrotation Zrotation
						End Site
						{
							OFFSET 0 0 0
						}
					}
				}
			}
		}
	}
	JOINT RightUpLeg_virtual
	{
		OFFSET 0.000000 0.000000 0.000000
		CHANNELS 3 Xrotation Yrotation Zrotation
		JOINT RightUpLeg
		{
			OFFSET -18.735201 -5.666702 -4.541200
			CHANNELS 3 Xrotation Yrotation Zrotation
			JOINT RightLeg
			{
				OFFSET 0.018946 -31.938133 0.493100
				CHANNELS 3 Xrotation Yrotation Zrotation
				JOINT RightFoot
				{
					OFFSET -0.018946 -31.938126 -4.336299
					CHANNELS 3 Xrotation Yrotation Zrotation
					JOINT RightToeBase
					{
						OFFSET -0.943001 -26.722004 15.023500
						CHANNELS 3 Xrotation Yrotation Zrotation
						End Site
						{
							OFFSET 0 0 0
						}
					}
				}
			}
		}
	}
	JOINT Hips_virtual
	{
		OFFSET 0.000000 0.000000 0.000000
		CHANNELS 3 Xrotation Yrotation Zrotation
		JOINT Hips
		{
			OFFSET -0.000000 -0.000000 -0.000000
			CHANNELS 3 Xrotation Yrotation Zrotation
			JOINT Spine
			{
				OFFSET 0.000000 10.199997 -0.299500
				CHANNELS 3 Xrotation Yrotation Zrotation
				JOINT Spine1
				{
					OFFSET 0.000000 11.900002 -1.516600
					CHANNELS 3 Xrotation Yrotation Zrotation
					JOINT Spine2
					{
						OFFSET 0.000000 13.600006 -2.842500
						CHANNELS 3 Xrotation Yrotation Zrotation
						JOINT Neck_virtual
						{
							OFFSET 0.000000 0.000000 0.000000
							CHANNELS 3 Xrotation Yrotation Zrotation
							JOINT Neck
							{
								OFFSET 0.000000 9.624100 -2.890100
								CHANNELS 3 Xrotation Yrotation Zrotation
								JOINT Head
								{
									OFFSET 0.000000 14.068802 -1.351900
									CHANNELS 3 Xrotation Yrotation Zrotation
									End Site
									{
										OFFSET 0 0 0
									}
								}
							}
						}
						JOINT LeftShoulder_virtual
						{
							OFFSET 0.000000 0.000000 0.000000
							CHANNELS 3 Xrotation Yrotation Zrotation
							JOINT LeftShoulder
							{
								OFFSET 15.263000 10.923401 -0.547700
								CHANNELS 3 Xrotation Yrotation Zrotation
								JOINT LeftArm
								{
									OFFSET 25.438599 -2.830597 -13.032500
									CHANNELS 3 Xrotation Yrotation Zrotation
									JOINT LeftForeArm
									{
										OFFSET 29.960503 0.000000 0.000000
										CHANNELS 3 Xrotation Yrotation Zrotation
										JOINT LeftHand
										{
											OFFSET 27.849251 0.000000 0.000000
											CHANNELS 3 Xrotation Yrotation Zrotation
											End Site
											{
												OFFSET 0 0 0
											}
										}
									}
								}
							}
						}
						JOINT RightShoulder_virtual
						{
							OFFSET 0.000000 0.000000 0.000000
							CHANNELS 3 Xrotation Yrotation Zrotation
							JOINT RightShoulder
							{
								OFFSET -15.263000 10.923401 -0.547700
								CHANNELS 3 Xrotation Yrotation Zrotation
								JOINT RightArm
								{
									OFFSET -25.438599 -2.830597 -13.032500
									CHANNELS 3 Xrotation Yrotation Zrotation
									JOINT RightForeArm
									{
										OFFSET -29.960503 0.000000 0.000000
										CHANNELS 3 Xrotation Yrotation Zrotation
										JOINT RightHand
										{
											OFFSET -27.849251 0.000000 0.000000
											CHANNELS 3 Xrotation Yrotation Zrotation
											End Site
											{
												OFFSET 0 0 0
											}
										}
									}
								}
							}
						}
					}
				}
			}
		}
	}
}
MOTION
Frames: 11
Frame Time: 0.03333333
-4.436724 80.543648 9.977173 0.000000 0.000000 0.000000 -1.233673 -51.849031 0.266582 -38.681110 6.856669 20.998129 54.990891 -12.072977 5.865191 -24.469643 -6.382287 -26.995095 0.000000 0.000000 0.000000 -1.721559 -51.189426 0.085199 -23.809037 0.004948 -32.967616 59.491474 -19.124226 1.813928 -43.824628 3.365883 21.981178 0.000000 0.000000 0.000000 -1.505982 -50.822843 0.072613 -0.792614 0.075455 0.003675 8.839855 7.945366 -2.288787 6.288559 4.187713 -2.115278 0.000000 0.000000 0.000000 5.966612 4.171960 -0.190933 0.693150 2.153457 -0.175871 0.000000 0.000000 0.000000 8.738476 3.629026 0.428778 -1.948653 -2.364101 -10.761881 -48.678939 4.199266 -51.127316 -148.651363 -69.415568 -139.631060 0.000000 0.000000 0.000000 4.735849 4.328038 -2.080909 8.008509 8.411775 6.144388 -51.218281 33.858112 74.838540 172.221417 57.159907 -170.813018 0.000000 0.000000 0.000000 
-4.662431 80.787865 10.458588 0.000000 0.000000 0.000000 -0.943210 -51.299031 0.512126 -38.880592 6.507133 20.858079 54.620664 -12.263137 5.926381 -24.708238 -6.668786 -27.819161 0.000000 0.000000 0.000000 -1.353416 -50.435684 0.325647 -25.541574 0.356397 -33.524915 63.204754 -18.561959 2.191760 -41.505823 4.235061 22.904194 0.000000 0.000000 0.000000 -1.118934 -50.086259 0.356039 -0.779254 0.075777 0.028528 9.020880 8.161850 -2.345270 6.317560 4.446942 -2.169887 0.000000 0.000000 0.000000 6.040840 4.334154 -0.331526 0.623200 2.155142 -0.215444 0.000000 0.000000 0.000000 8.650805 3.833503 0.488077 -2.019995 -2.400585 -10.439182 -49.269553 4.382112 -50.547109 -149.367399 -68.880306 -140.080227 0.000000 0.000000 0.000000 4.900700 4.515648 -2.224160 7.812672 8.693109 6.117640 -51.267697 34.182037 73.935630 172.787913 57.721949 -171.215521 0.000000 0.000000 0.000000 
-5.042048 81.270325 10.984276 0.000000 0.000000 0.000000 -0.085417 -50.437286 1.058754 -39.066862 6.113462 20.477433 53.736483 -12.245286 6.150865 -24.262277 -7.089369 -28.280128 0.000000 0.000000 0.000000 -0.538679 -49.359646 0.807813 -27.543918 1.090357 -34.085967 65.851835 -17.364579 2.032434 -36.988056 6.634833 24.055276 0.000000 0.000000 0.000000 -0.165730 -49.177785 1.030239 -0.777738 0.044237 0.055218 9.254648 8.435888 -2.441055 6.292632 4.720445 -2.270331 0.000000 0.000000 0.000000 6.072991 4.600177 -0.510759 0.525319 2.178747 -0.321944 0.000000 0.000000 0.000000 8.569478 4.099430 0.447804 -2.083851 -2.723531 -10.235721 -50.694067 4.815163 -49.286751 -150.922824 -67.886794 -141.346858 0.000000 0.000000 0.000000 5.011356 4.798601 -2.437765 7.652298 9.124255 5.948765 -52.260062 34.285197 73.017850 173.631099 58.870500 -171.893021 0.000000 0.000000 0.000000 
-5.552726 81.884247 11.372398 0.000000 0.000000 0.000000 1.102055 -49.347113 1.734743 -39.196311 5.756214 20.055348 52.217428 -12.182601 6.551949 -22.753329 -7.876054 -28.882469 0.000000 0.000000 0.000000 0.532058 -48.151297 1.404491 -29.249940 1.574422 -34.363074 66.687051 -15.889863 1.543284 -31.779432 9.897656 25.437535 0.000000 0.000000 0.000000 1.064033 -48.207332 1.842305 -0.789700 0.008391 0.060882 9.466747 8.646511 -2.487295 6.236329 4.922118 -2.342629 0.000000 0.000000 0.000000 6.036269 4.871601 -0.651068 0.417727 2.233004 -0.466586 0.000000 0.000000 0.000000 8.491657 4.342505 0.380791 -2.159589 -3.335304 -10.240696 -53.026310 5.429479 -47.200019 -152.870589 -66.549538 -143.038122 0.000000 0.000000 0.000000 4.973745 5.083617 -2.599986 7.542161 9.690777 5.683461 -54.792618 34.287792 72.572543 174.683755 60.607950 -172.831339 0.000000 0.000000 0.000000 
-6.153799 82.522873 11.681595 0.000000 0.000000 0.000000 2.256136 -48.107843 2.303549 -39.511808 5.469689 19.855544 50.505243 -12.088976 7.184663 -20.047527 -8.995396 -29.624856 0.000000 0.000000 0.000000 1.706292 -46.911870 1.987208 -30.629765 1.373002 -34.415312 66.225501 -14.510127 1.098573 -27.748065 12.942414 26.668549 0.000000 0.000000 0.000000 2.314835 -47.192584 2.582492 -0.798990 0.011323 0.046097 9.646834 8.727393 -2.386955 6.171475 5.021183 -2.326787 0.000000 0.000000 0.000000 5.891126 5.058040 -0.693648 0.305795 2.313990 -0.623145 0.000000 0.000000 0.000000 8.424556 4.503998 0.400269 -2.249854 -4.133543 -10.473330 -56.187011 5.841724 -44.265647 -154.832739 -65.053618 -144.855690 0.000000 0.000000 0.000000 4.778785 5.282309 -2.614660 7.460895 10.325285 5.366359 -59.129863 34.272093 72.897673 175.779795 62.980184 -173.871713 0.000000 0.000000 0.000000 
-6.863601 83.036591 11.965778 0.000000 0.000000 0.000000 3.110610 -46.853646 2.613025 -40.034700 5.271420 19.951958 49.131982 -11.975978 8.109426 -17.306803 -10.205944 -30.497235 0.000000 0.000000 0.000000 2.586343 -45.802596 2.344976 -31.679230 0.730398 -34.356227 65.550391 -13.496874 0.888012 -25.431509 14.953512 27.116683 0.000000 0.000000 0.000000 3.267377 -46.017706 3.017829 -0.806370 0.049320 0.018124 9.774662 8.621408 -2.104228 6.106181 4.991346 -2.195830 0.000000 0.000000 0.000000 5.638301 5.106621 -0.631580 0.204221 2.408360 -0.773089 0.000000 0.000000 0.000000 8.409069 4.546688 0.556903 -2.351964 -5.043057 -10.980605 -59.566339 5.730641 -40.903185 -156.335845 -63.687996 -146.364083 0.000000 0.000000 0.000000 4.488966 5.346093 -2.459411 7.371832 10.795502 4.991845 -64.926467 34.334220 74.085832 176.753821 65.891463 -174.860616 0.000000 0.000000 0.000000 
-7.717553 83.288345 12.149963 0.000000 0.000000 0.000000 3.538033 -45.661601 2.647139 -40.489730 4.912272 20.123248 48.301039 -12.167559 9.446348 -15.987530 -11.384074 -31.850921 0.000000 0.000000 0.000000 3.057961 -44.821586 2.445495 -32.129435 -0.067887 -34.274046 64.867816 -13.272360 0.725011 -24.806255 15.263265 26.087370 0.000000 0.000000 0.000000 3.751445 -44.740195 3.094896 -0.807000 0.102245 -0.007777 9.872294 8.348499 -1.681548 6.100547 4.835238 -1.989466 0.000000 0.000000 0.000000 5.330518 5.022963 -0.503165 0.108502 2.487616 -0.908075 0.000000 0.000000 0.000000 8.455477 4.465517 0.834540 -2.456776 -5.930701 -11.769923 -62.466294 4.927493 -37.697525 -157.215464 -62.647349 -147.408869 0.000000 0.000000 0.000000 4.148889 5.257445 -2.194290 7.246371 10.946077 4.448945 -71.221518 34.363245 76.056554 177.406869 68.964946 -175.602401 0.000000 0.000000 0.000000 
-8.666265 83.160156 12.239464 0.000000 0.000000 0.000000 3.483709 -44.660848 2.479801 -40.655233 4.307311 20.298907 48.188105 -12.725341 11.091702 -16.295585 -12.400940 -33.756564 0.000000 0.000000 0.000000 3.060680 -43.970678 2.322111 -31.646763 -0.661322 -34.251688 64.209454 -13.956454 0.507216 -26.279759 13.629892 23.582126 0.000000 0.000000 0.000000 3.712454 -43.554935 2.894849 -0.804284 0.144186 -0.018636 9.935949 7.963149 -1.287509 6.190052 4.584253 -1.821570 0.000000 0.000000 0.000000 5.026931 4.849520 -0.361420 0.020848 2.520767 -1.007824 0.000000 0.000000 0.000000 8.589041 4.276683 1.120355 -2.566221 -6.673970 -12.896375 -64.101783 3.574323 -35.396106 -157.085308 -62.351527 -147.607013 0.000000 0.000000 0.000000 3.870237 5.080772 -1.967826 7.097433 10.773312 3.730806 -76.531710 34.268254 78.380075 177.438056 71.724028 -175.802034 0.000000 0.000000 0.000000 
-9.725475 82.591484 12.110443 0.000000 0.000000 0.000000 2.937754 -43.934581 2.221180 -40.503701 3.855491 20.675056 48.790592 -13.332983 12.667000 -17.671670 -13.002757 -35.840113 0.000000 0.000000 0.000000 2.559996 -43.382209 2.085607 -30.069901 -0.729868 -34.292628 62.966244 -14.957057 0.115502 -28.536694 11.118543 21.023949 0.000000 0.000000 0.000000 3.223077 -42.664326 2.596702 -0.796656 0.153952 -0.024466 10.004919 7.535709 -1.091776 6.335429 4.295358 -1.781379 0.000000 0.000000 0.000000 4.778574 4.645723 -0.267366 -0.039948 2.493885 -1.049759 0.000000 0.000000 0.000000 8.813244 4.024054 1.262529 -2.683114 -7.132544 -14.258027 -64.323969 2.047332 -34.277776 -155.671131 -62.998824 -146.603208 0.000000 0.000000 0.000000 3.691564 4.879472 -1.884430 6.950594 10.301243 2.913051 -79.627998 34.076463 80.545361 176.786360 73.777743 -175.366364 0.000000 0.000000 0.000000 
-10.868759 81.619743 11.757435 0.000000 0.000000 0.000000 1.941846 -43.573530 1.961632 -40.177341 3.769946 21.350061 49.921965 -13.719315 13.954754 -19.497028 -12.991974 -37.556717 0.000000 0.000000 0.000000 1.696148 -43.132600 1.857578 -27.750222 -0.324286 -34.643170 60.564858 -15.644608 -0.501516 -30.202082 8.816919 19.762061 0.000000 0.000000 0.000000 2.372647 -42.226238 2.355878 -0.785122 0.144618 -0.015209 10.183133 7.192453 -1.166686 6.503544 4.047753 -1.915414 0.000000 0.000000 0.000000 4.645108 4.470902 -0.304883 -0.066355 2.407612 -1.029668 0.000000 0.000000 0.000000 9.072559 3.770412 1.181591 -2.792718 -7.197608 -15.553973 -63.548278 0.708512 -34.229732 -153.101053 -64.357143 -144.407179 0.000000 0.000000 0.000000 3.630648 4.714331 -1.982499 6.794500 9.630411 2.077437 -79.981850 33.892119 81.984885 175.474690 74.945576 -174.243767 0.000000 0.000000 0.000000 
-12.078691 80.393997 11.248905 0.000000 0.000000 0.000000 0.671944 -43.635432 1.748389 -39.573286 4.003842 22.205020 51.227119 -13.792761 14.939678 -21.063414 -12.348478 -38.338593 0.000000 0.000000 0.000000 0.530305 -43.197914 1.675951 -25.355091 0.420565 -35.553317 57.476479 -15.571901 -1.104585 -30.810895 7.368401 20.247549 0.000000 0.000000 0.000000 1.186246 -42.268271 2.192557 -0.779899 0.125649 -0.004810 10.492418 6.986818 -1.495297 6.632384 3.856205 -2.227667 0.000000 0.000000 0.000000 4.650021 4.348013 -0.528149 -0.030466 2.275140 -0.954910 0.000000 0.000000 0.000000 9.325786 3.559511 0.868545 -2.876486 -6.833006 -16.496635 -62.367359 -0.279779 -34.932641 -149.882614 -65.877837 -141.403494 0.000000 0.000000 0.000000 3.728427 4.619273 -2.262117 6.641647 8.848617 1.251419 -77.998315 33.871366 82.508945 173.677586 75.471261 -172.601298 0.000000 0.000000 0.000000 
